<svg width="120" height="120" viewBox="0 0 120 120" fill="none" xmlns="http://www.w3.org/2000/svg">
<path d="M60 26.25C64.1421 26.25 67.5 22.8921 67.5 18.75C67.5 14.6079 64.1421 11.25 60 11.25C55.8579 11.25 52.5 14.6079 52.5 18.75C52.5 22.8921 55.8579 26.25 60 26.25Z" stroke="white" stroke-width="2" stroke-miterlimit="10" stroke-linecap="round" stroke-linejoin="round"/>
<path d="M18.75 18.75H52.5" stroke="white" stroke-width="2" stroke-miterlimit="10" stroke-linecap="round" stroke-linejoin="round"/>
<path d="M67.5 18.75H101.25" stroke="white" stroke-width="2" stroke-miterlimit="10" stroke-linecap="round" stroke-linejoin="round"/>
<path d="M60 26.25V78.75" stroke="white" stroke-width="2" stroke-miterlimit="10" stroke-linecap="round" stroke-linejoin="round"/>
<path d="M3.75 63.75C3.75 72 10.5 78.75 18.75 78.75C27 78.75 33.75 72 33.75 63.75H3.75Z" stroke="white" stroke-width="2" stroke-miterlimit="10" stroke-linecap="round" stroke-linejoin="round"/>
<path d="M18.75 18.75L3.75 63.75H33.75L18.75 18.75Z" stroke="white" stroke-width="2" stroke-miterlimit="10" stroke-linecap="round" stroke-linejoin="round"/>
<path d="M86.25 63.75C86.25 72 93 78.75 101.25 78.75C109.5 78.75 116.25 72 116.25 63.75H86.25Z" stroke="white" stroke-width="2" stroke-miterlimit="10" stroke-linecap="round" stroke-linejoin="round"/>
<path d="M101.25 18.75L86.25 63.75H116.25L101.25 18.75Z" stroke="white" stroke-width="2" stroke-miterlimit="10" stroke-linecap="round" stroke-linejoin="round"/>
<path d="M60 3.75V11.25" stroke="white" stroke-width="2" stroke-miterlimit="10" stroke-linecap="round" stroke-linejoin="round"/>
<path d="M90 112.5H30L31.875 106.5C33 103.5 35.625 101.25 39 101.25H80.625C84 101.25 86.625 103.5 87.75 106.5L90 112.5Z" stroke="white" stroke-width="2" stroke-miterlimit="10" stroke-linecap="round" stroke-linejoin="round"/>
<path d="M67.5 101.25H52.5V82.5C52.5 80.25 54 78.75 56.25 78.75H63.75C66 78.75 67.5 80.25 67.5 82.5V101.25Z" stroke="white" stroke-width="2" stroke-miterlimit="10" stroke-linecap="round" stroke-linejoin="round"/>
</svg>
